<?xml version="1.0" encoding="UTF-8" standalone="no"?>
<svg width="48px" height="48px" viewBox="0 0 48 48" version="1.1" xmlns="http://www.w3.org/2000/svg" xmlns:xlink="http://www.w3.org/1999/xlink">
  <!-- Generator: Sketch 39.1 (31720) - http://www.bohemiancoding.com/sketch -->
  <title>Group</title>
  <desc>Created with Sketch.</desc>
  <defs></defs>
  <g id="Page-1" stroke="none" stroke-width="1" fill-rule="evenodd">
    <g id="Group" fill="#000000">
      <path d="M24,27 C33.6,27 41.4,23.4 41.4,18.9 L41.4,18.6 L41.4,18.6 L41.4,14.9 C41.4,14.5 40.9,14.2 40.6,14.5 C36.9,17.5 30.5,19.1 24,19.1 C17.6,19.1 11.1,17.5 7.4,14.5 C7.1,14.2 6.6,14.5 6.6,14.9 L6.6,18.6 L6.6,18.6 L6.6,18.9 C6.6,23.3 14.4,27 24,27 L24,27 Z"
            id="Shape"></path>
      <ellipse id="Oval" cx="24" cy="8.6" rx="17.4" ry="8.1"></ellipse>
      <path d="M46.1,42.7 L32.6,42.7 C32.4,42.7 32.1,42.5 32.1,42.3 L32.1,41.5 C32.1,41 31.7,40.6 31.2,40.6 L25.9,40.6 C25.6,40.6 25.4,40.4 25.4,40.1 L25.4,38 C25.4,37.7 25.6,37.5 25.9,37.5 C34.6,37.1 41.4,33.6 41.4,29.5 L41.4,29.2 L41.4,29.2 L41.4,25.5 C41.4,25.1 40.9,24.8 40.5,25.1 C36.8,28.1 30.4,29.7 24,29.7 C17.6,29.7 11.2,28.1 7.5,25.1 C7.2,24.8 6.6,25.1 6.6,25.5 L6.6,29.2 L6.6,29.2 L6.6,29.5 C6.6,33.7 13.4,37.1 22.1,37.5 C22.4,37.5 22.6,37.7 22.6,38 L22.6,40.1 C22.6,40.4 22.4,40.6 22.1,40.6 L16.8,40.6 C16.3,40.6 15.9,41 15.9,41.5 L15.9,42.3 C15.9,42.5 15.7,42.7 15.4,42.7 L1.9,42.7 C1.1,42.7 0.5,43.3 0.5,44.1 C0.5,44.9 1.1,45.5 1.9,45.5 L15.4,45.5 C15.6,45.5 15.9,45.7 15.9,45.9 L15.9,46.7 C15.9,47.2 16.3,47.6 16.8,47.6 L31.3,47.6 C31.8,47.6 32.2,47.2 32.2,46.7 L32.2,45.9 C32.2,45.7 32.4,45.5 32.7,45.5 L46.2,45.5 C47,45.5 47.6,44.9 47.6,44.1 C47.6,43.3 46.9,42.7 46.1,42.7 L46.1,42.7 Z"
            id="Shape"></path>
    </g>
  </g>
</svg>
