<?xml version="1.0" encoding="UTF-8" standalone="no"?>
<svg width="125px" height="125px" viewBox="0 0 125 125" version="1.1" xmlns="http://www.w3.org/2000/svg" xmlns:xlink="http://www.w3.org/1999/xlink">
  <!-- Generator: Sketch 41.2 (35397) - http://www.bohemiancoding.com/sketch -->
  <title>Group 7</title>
  <desc>Created with Sketch.</desc>
  <defs></defs>
  <g id="Page-1" stroke="none" stroke-width="1" fill="none" fill-rule="evenodd">
    <g id="Home-screen" transform="translate(-31.000000, -744.000000)">
      <g id="Group-7" transform="translate(31.000000, 744.000000)">
        <rect id="Rectangle-2" fill="#F4D60D" x="0" y="0" width="125" height="125"></rect>
        <path d="M1,124 L124,124 L124,1 L1,1 L1,124 Z M0,0 L125,0 L125,125 L0,125 L0,0 Z" id="Rectangle-2" fill="#636363"></path>
        <path d="M52.0994245,39.7678479 L29,39.7678479 L29,85.3268237 L34.2469607,85.3268237 L34.2469607,63.8910697 L51.5235386,63.8910697 L51.5235386,58.9000583 L34.2469607,58.9000583 L34.2469607,44.7588593 L52.0994245,44.7588593 L52.0994245,39.7678479 Z M95.0857143,77.3923954 C91.4384367,79.8239137 87.7911592,81.0396729 84.0798943,81.0396729 C78.8969209,81.0396729 74.6737574,79.2480278 71.3464165,75.6647376 C68.0190756,72.01746 66.3554051,67.6663219 66.3554051,62.5473358 C66.3554051,57.3643624 68.0190756,53.0132243 71.3464165,49.4299341 C74.6737574,45.8466438 78.8969209,44.0549987 84.0798943,44.0549987 C87.9831212,44.0549987 91.6943861,45.3347452 95.0857143,47.8302509 L95.0857143,41.8794297 C91.5664114,39.9598099 87.9191338,39 84.0798943,39 C77.6811617,39 72.2422391,41.3035437 67.699139,45.8466438 C63.2200262,50.389744 60.9804698,55.9566413 60.9804698,62.5473358 C60.9804698,69.1380304 63.2200262,74.7049277 67.699139,79.2480278 C72.2422391,83.7911279 77.6811617,86.0306843 84.0798943,86.0306843 C87.5991972,86.0306843 91.3104621,85.0708744 95.0857143,83.0872673 L95.0857143,77.3923954 Z"
              id="FC" fill="#000000"></path>
      </g>
    </g>
  </g>
</svg>
