<?xml version="1.0" encoding="UTF-8" standalone="no"?>
<svg width="350px" height="348px" viewBox="0 0 350 348" version="1.1" xmlns="http://www.w3.org/2000/svg" xmlns:xlink="http://www.w3.org/1999/xlink">
  <!-- Generator: Sketch 41.2 (35397) - http://www.bohemiancoding.com/sketch -->
  <title>Group 2</title>
  <desc>Created with Sketch.</desc>
  <defs></defs>
  <g id="Page-1" stroke="none" stroke-width="1" fill="none" fill-rule="evenodd">
    <g id="Icons" transform="translate(-58.000000, -541.000000)">
      <g id="Group-2" transform="translate(59.267998, 542.000000)">
        <polygon id="Path-2" stroke="#636363" stroke-width="2" fill="#F5D606" points="22.3164829 0.802955652 0.472869532 345.532613 347.485463 325.297651 347.520782 21.208095"></polygon>
        <polygon id="Path-5" fill="#000000" points="85.8191602 123.745869 85.8191602 228.345097 109.602745 228.345097 109.602745 187.633452 160.94418 187.633452 160.94418 166.703555 109.602027 166.703555 109.602027 144.762719 167.925698 144.762719 167.925698 123.745869"></polygon>
        <path d="M281.55698,212.029311 C271.472689,223.650682 256.594607,231 240,231 C209.624339,231 185,206.375661 185,176 C185,145.624339 209.624339,121 240,121 C256.287519,121 270.921454,128.079832 280.992235,139.329925 L266.417826,156.220531 C260.398218,148.193507 250.805613,143 240,143 C221.774603,143 207,157.774603 207,176 C207,194.225397 221.774603,209 240,209 C251.117748,209 260.951397,203.502117 266.930479,195.076817 L281.453533,211.907907 L281.55698,212.029311 Z" id="Combined-Shape" fill="#000000"></path>
      </g>
    </g>
  </g>
</svg>
