<?xml version="1.0" encoding="UTF-8" standalone="no"?>
<svg width="95px" height="25px" viewBox="0 0 95 25" version="1.1" xmlns="http://www.w3.org/2000/svg" xmlns:xlink="http://www.w3.org/1999/xlink">
  <!-- Generator: Sketch 39.1 (31720) - http://www.bohemiancoding.com/sketch -->
  <title>HolyJS</title>
  <desc>Created with Sketch.</desc>
  <defs></defs>
  <g id="Page-1" stroke="none" stroke-width="1" fill-rule="evenodd">
    <path d="M0.761090755,19 L0.761090755,0.388671875 L4.51890326,0.388671875 L4.51890326,7.71386719 L11.8821845,7.71386719 L11.8821845,0.388671875 L15.639997,0.388671875 L15.639997,19 L11.8821845,19 L11.8821845,10.8623047 L4.51890326,10.8623047 L4.51890326,19 L0.761090755,19 Z M20.5313196,12.0683594 C20.5313196,10.8834576 20.8233089,9.73665919 21.4072962,8.62792969 C21.9912835,7.51920019 22.8185864,6.67285448 23.8892298,6.08886719 C24.9598731,5.50487989 26.1553365,5.21289062 27.4756556,5.21289062 C29.5153793,5.21289062 31.1869121,5.87515614 32.490304,7.19970703 C33.7936959,8.52425792 34.4453821,10.1979066 34.4453821,12.2207031 C34.4453821,14.2604269 33.7873483,15.9510024 32.471261,17.2924805 C31.1551737,18.6339585 29.498452,19.3046875 27.5010462,19.3046875 C26.2653629,19.3046875 25.0868265,19.0253934 23.9654016,18.4667969 C22.8439768,17.9082003 21.9912835,17.0893609 21.4072962,16.0102539 C20.8233089,14.9311469 20.5313196,13.6171952 20.5313196,12.0683594 L20.5313196,12.0683594 Z M24.1875696,12.2587891 C24.1875696,13.5960353 24.5049493,14.6201136 25.1397181,15.3310547 C25.7744869,16.0419957 26.5573566,16.3974609 27.4883509,16.3974609 C28.4193451,16.3974609 29.200099,16.0419957 29.830636,15.3310547 C30.461173,14.6201136 30.7764368,13.5875719 30.7764368,12.2333984 C30.7764368,10.9130793 30.461173,9.89746449 29.830636,9.18652344 C29.200099,8.47558238 28.4193451,8.12011719 27.4883509,8.12011719 C26.5573566,8.12011719 25.7744869,8.47558238 25.1397181,9.18652344 C24.5049493,9.89746449 24.1875696,10.9215428 24.1875696,12.2587891 L24.1875696,12.2587891 Z M39.0954938,19 L39.0954938,0.388671875 L42.6628766,0.388671875 L42.6628766,19 L39.0954938,19 Z M46.487793,5.51757812 L50.2836914,5.51757812 L53.5083008,15.0898437 L56.6567383,5.51757812 L60.3510742,5.51757812 L55.590332,18.4921875 L54.7397461,20.8408203 C54.4265935,21.6279336 54.1282566,22.2288391 53.8447266,22.6435547 C53.5611965,23.0582703 53.2353534,23.3946927 52.8671875,23.652832 C52.4990216,23.9109713 52.0462266,24.1119784 51.5087891,24.2558594 C50.9713515,24.3997403 50.3640984,24.4716797 49.6870117,24.4716797 C49.0014614,24.4716797 48.3286166,24.3997403 47.668457,24.2558594 L47.3510742,21.4628906 C47.9096708,21.5729172 48.4132465,21.6279297 48.8618164,21.6279297 C49.6912476,21.6279297 50.3048483,21.3846053 50.7026367,20.8979492 C51.1004252,20.4112931 51.4051096,19.7913449 51.6166992,19.0380859 L46.487793,5.51757812 Z M71.2345843,0.388671875 L74.9797015,0.388671875 L74.9797015,12.1699219 C74.9797015,13.7102942 74.8442862,14.8951781 74.5734515,15.7246094 C74.2095174,16.8079481 73.5493678,17.6775683 72.5929828,18.3334961 C71.6365978,18.9894239 70.3755427,19.3173828 68.8097796,19.3173828 C66.9731819,19.3173828 65.5597846,18.8032278 64.5695453,17.7749023 C63.5793059,16.7465769 63.079962,15.2379657 63.0714984,13.2490234 L66.6134906,12.8427734 C66.6558085,13.909185 66.8123825,14.6624327 67.0832171,15.1025391 C67.4894692,15.7711622 68.1073015,16.1054688 68.9367328,16.1054688 C69.7746276,16.1054688 70.3670696,15.8663761 70.7140765,15.3881836 C71.0610835,14.9099911 71.2345843,13.9176508 71.2345843,12.4111328 L71.2345843,0.388671875 Z M79.8837194,12.9443359 L83.5399694,12.5888672 C83.7600226,13.8160869 84.20647,14.717445 84.8793249,15.2929688 C85.5521798,15.8684925 86.4598856,16.15625 87.6024694,16.15625 C88.812762,16.15625 89.7246994,15.9002304 90.3383093,15.3881836 C90.9519191,14.8761368 91.2587194,14.2773472 91.2587194,13.5917969 C91.2587194,13.1516905 91.1296517,12.7771825 90.8715124,12.4682617 C90.6133731,12.1593409 90.162694,11.8906261 89.5194616,11.6621094 C89.0793553,11.5097649 88.0764356,11.2389342 86.5106726,10.8496094 C84.4963396,10.3502579 83.0829423,9.73665729 82.2704382,9.00878906 C81.1278544,7.9846954 80.556571,6.73633549 80.556571,5.26367188 C80.556571,4.31575047 80.8252858,3.42920334 81.3627234,2.60400391 C81.9001609,1.77880447 82.6745673,1.15039278 83.6859655,0.71875 C84.6973638,0.287107217 85.9182175,0.0712890625 87.3485632,0.0712890625 C89.6845124,0.0712890625 91.4427956,0.583328213 92.6234655,1.60742188 C93.8041355,2.63151554 94.4240837,3.99836385 94.4833288,5.70800781 L90.7255163,5.87304688 C90.5647082,4.91666188 90.2198223,4.229006 89.6908484,3.81005859 C89.1618744,3.39111119 88.3684253,3.18164062 87.3104773,3.18164062 C86.2186749,3.18164062 85.3638658,3.40592224 84.7460241,3.85449219 C84.3482357,4.14225404 84.1493444,4.52734134 84.1493444,5.00976563 C84.1493444,5.44987199 84.3355405,5.82649583 84.7079382,6.13964844 C85.1818989,6.53743688 86.3329291,6.95214628 88.1610632,7.38378906 C89.9891973,7.81543185 91.3412346,8.2618792 92.2172155,8.72314453 C93.0931965,9.18440986 93.7787365,9.81493741 94.2738562,10.6147461 C94.7689758,11.4145548 95.0165319,12.4026634 95.0165319,13.5791016 C95.0165319,14.6455131 94.7203109,15.6442011 94.1278601,16.5751953 C93.5354092,17.5061896 92.6975269,18.1980772 91.6141882,18.6508789 C90.5308494,19.1036806 89.180928,19.3300781 87.5643835,19.3300781 C85.2115072,19.3300781 83.4045591,18.786301 82.1434851,17.6987305 C80.8824111,16.6111599 80.1291634,15.0263776 79.8837194,12.9443359 L79.8837194,12.9443359 Z"
          id="HolyJS"></path>
  </g>
</svg>
