<?xml version="1.0" encoding="UTF-8" standalone="no"?>
<svg width="79px" height="73px" viewBox="0 0 79 73" version="1.1" xmlns="http://www.w3.org/2000/svg" xmlns:xlink="http://www.w3.org/1999/xlink">
    <!-- Generator: Sketch 3.8.3 (29802) - http://www.bohemiancoding.com/sketch -->
    <title>Shape</title>
    <desc>Created with Sketch.</desc>
    <defs></defs>
    <g id="Page-1" stroke="none" stroke-width="1" fill-rule="evenodd">
        <g id="noun_483268_cc" transform="translate(0.000000, 1.000000)">
            <path d="M33.515,45.896 C33.515,45.346 33.965,44.896 34.515,44.896 L45.274,44.896 C45.824,44.896 46.274,45.346 46.274,45.896 L46.274,70.515 C46.274,71.065 46.724,71.515 47.274,71.515 L66.835,71.515 C67.385,71.515 67.835,71.065 67.835,70.515 L67.835,41.936 C67.835,41.386 68.285,40.936 68.835,40.936 L77.613,40.936 C78.163,40.936 78.307,40.606 77.933,40.202 L41.015,0.311 C40.641,-0.093 40.017,-0.105 39.628,0.284 L28.393,11.52 C28.004,11.909 27.686,11.777 27.686,11.227 L27.686,4.317 C27.686,3.767 27.236,3.317 26.686,3.317 L17.796,3.317 C17.246,3.317 16.796,3.767 16.796,4.317 L16.796,23.657 C16.796,24.207 16.478,24.975 16.089,25.364 L1.223,40.229 C0.834,40.618 0.966,40.936 1.516,40.936 L10.955,40.936 C11.505,40.936 11.955,41.386 11.955,41.936 L11.955,70.515 C11.955,71.065 12.405,71.515 12.955,71.515 L32.515,71.515 C33.065,71.515 33.515,71.065 33.515,70.515 L33.515,45.896 L33.515,45.896 Z" id="Shape"></path>
        </g>
    </g>
</svg>
